<svg viewBox="0 0 128 128" xmlns="http://www.w3.org/2000/svg" role="img" aria-label="Garden Planner">
  <rect width="128" height="128" rx="24" fill="#0b1220"/>
  <g fill="none" stroke="#1f2937" stroke-width="1">
    <line x1="16" y1="96" x2="112" y2="96"/>
    <line x1="16" y1="104" x2="112" y2="104"/>
    <line x1="16" y1="112" x2="112" y2="112"/>
    <line x1="32" y1="92" x2="32" y2="116"/>
    <line x1="64" y1="92" x2="64" y2="116"/>
    <line x1="96" y1="92" x2="96" y2="116"/>
  </g>
  <circle cx="64" cy="48" r="18" fill="#fbbf24"/>
  <g stroke="#fbbf24" stroke-width="3" stroke-linecap="round" opacity="0.9">
    <line x1="64" y1="18" x2="64" y2="26"/>
    <line x1="34" y1="48" x2="42" y2="48"/>
    <line x1="86" y1="48" x2="94" y2="48"/>
    <line x1="42" y1="26" x2="48" y2="32"/>
    <line x1="80" y1="64" x2="86" y2="70"/>
    <line x1="42" y1="70" x2="48" y2="64"/>
    <line x1="80" y1="32" x2="86" y2="26"/>
  </g>
  <path d="M 64 102 L 64 82" stroke="#065f46" stroke-width="3" stroke-linecap="round"/>
  <path d="M 64 86 C 50 84, 44 94, 48 100 C 58 98, 64 94, 64 86 Z" fill="#10b981"/>
  <path d="M 64 86 C 78 84, 84 94, 80 100 C 70 98, 64 94, 64 86 Z" fill="#34d399"/>
</svg>
